<svg width="23" height="24" viewBox="0 0 23 24" fill="none" xmlns="http://www.w3.org/2000/svg">
<path d="M19.1793 18.3625C19.8854 17.1601 19.8854 15.5234 19.8854 12.25C19.8854 8.97657 19.8854 7.33985 19.1793 6.13751C18.7842 5.46473 18.2422 4.89908 17.5974 4.4868C16.4451 3.75 14.8766 3.75 11.7396 3.75C8.60255 3.75 7.03402 3.75 5.88178 4.4868C5.23703 4.89908 4.69495 5.46473 4.29985 6.13751C3.59375 7.33985 3.59375 8.97657 3.59375 12.25C3.59375 15.5234 3.59375 17.1601 4.29985 18.3625C4.69495 19.0353 5.23703 19.6009 5.88178 20.0132C7.03402 20.75 8.60255 20.75 11.7396 20.75C14.8766 20.75 16.4451 20.75 17.5974 20.0132C18.2422 19.6009 18.7842 19.0353 19.1793 18.3625Z" stroke="white" stroke-width="1.25" stroke-linecap="round"/>
<path d="M17.0104 7.25C17.0104 7.52614 16.7959 7.75 16.5313 7.75C16.2667 7.75 16.0521 7.52614 16.0521 7.25C16.0521 6.97386 16.2667 6.75 16.5313 6.75C16.7959 6.75 17.0104 6.97386 17.0104 7.25Z" stroke="white" stroke-width="1.25" stroke-linecap="round"/>
<path d="M15.5729 12.25C15.5729 14.4591 13.8566 16.25 11.7396 16.25C9.62249 16.25 7.90625 14.4591 7.90625 12.25C7.90625 10.0409 9.62249 8.25 11.7396 8.25C13.8566 8.25 15.5729 10.0409 15.5729 12.25Z" stroke="white" stroke-width="1.25" stroke-linecap="round"/>
</svg>
